<svg version="1.2" xmlns="http://www.w3.org/2000/svg" viewBox="0 0 1536 1024" width="1536" height="1024">
	<defs>
		<linearGradient id="g1" x2="1" gradientUnits="userSpaceOnUse" gradientTransform="matrix(-3.93,-4.019,14.857,-14.526,1091.695,484.611)">
			<stop offset="0" stop-color="#ffffff" stop-opacity="0"/>
			<stop offset="1" stop-color="#f7f7f7" stop-opacity=".035"/>
		</linearGradient>
	</defs>
	<style>
		.s0 { fill: #e9e9e3 } 
		.s1 { fill: #fecc05 } 
		.s2 { fill: url(#g1) } 
	</style>
	<g id="Layer 1">
		<path class="s0" d="m1148.91 327.68c-18.74-12.15-32.27-27.85-36.61-50.23-7.67-39.59 43.18-0.26 52.71 7.76q2.52 2.11 4.95 4.32c0.62-8.03 1.41-24.03 10.53-26.51 16.45 3.36 24.25 39.28 26.51 53.76 30.83 8.52 35.67 14.91 58.39 36.16 8.56 8 38.74 14.53 34.92 31.6-3.82 10.07-17.53 17.95-27.91 18.5-5.62 0.3-13.21-3.25-18.3-3.31-21.85-0.25-35.32 2.28-56.72-4.82-28.77 26.51-68.21 85.65-106.16 93.87l-1.91-0.6c3.11-4.12 6.97-12.84 9.34-17.78-4.23 4.06-9.68 8.94-12.26 14.09l-0.59 0.85c-20.03 29.21 8.84 92.55-41.93 102.39-14.46 2.81-40.93 3.72-44.94-14.98-0.46-2.42 0.41-3.14 1.86-4.72 4.88-1.1 7.22-0.2 10.78-2.8 2.67-5.55 0.93-5.38 4.94-8.54 10.03-2.43 10.64 7.4 18.19 5.36 13.57-3.66 4.88-33.18 1.59-41.96-14.81-39.45-26.76-45.83 5.06-80-37.67 11.43-33.51 41.04-20.07 70.61-39.46 14.03-63.77 17.79-106.27 15.92 10.2-37.53 1.97-72.93-32.01-94.85 17.1 30.82 25.91 62.22 16.09 97.23-23.21 82.74-110.81 85.83-153.82 146.93-28.47 40.44 26.29 92.95-41.02 166.55-10.7 11.71-23.27 24.78-37.28 32.45-4.98 2.72-11.55 5.41-17.28 3.76-2.88-0.83-5.7-3.03-7.03-5.76-0.85-1.73-0.95-3.4-0.18-5.16 2.89-6.67 13.55-11.77 18.44-17.61-8.7 1.54-22.85 6.19-26.19-4.75 0.4-7.84 9.47-18.83 14.47-24.65 26.75-31.13 37.37-76.32 29.02-116.34-3.52-16.87-8.67-29.03-7.93-46.79 9.73-12.52 22.38-19.32 34.5-29.51 23.51-19.75 49.65-52.99 45.68-85.25q-0.12-1-0.26-1.99c-19.61-20.48-28.89-20.99-40.89-49.68-35.97 16.84-71.51 50.02-104.69 73.4-87.73 61.8-202.59 99.49-307.93 62.9-16.08-5.58-51.63-20.3-59.68-36.1-1.62-3.17-1.08-4.46-0.02-7.18 2.14-1.51 2.89-2.17 5.81-1.27 18.9 5.79 33.56 11.9 53.29 14.99 84.99 13.31 164.29-16.88 233.21-65.2 23.95-16.94 46.62-35.62 67.82-55.9 15.31-14.64 30.11-30.57 45.58-44.8 41.97-39.32 91.43-69.78 145.42-89.56 9.17-3.33 33.72-11.41 43.41-12.05 31.6-2.11 74.87 0.05 105.45 5.35 12.21 2.14 24.26 5.09 36.09 8.82 41.25 13.25 99.99 41.28 142.74 14.35 8.34-5.25 25.45-23.47 33.09-31.27z"/>
		<path class="s0" d="m422.97 272.91c16.81-1.28 25.59 12.18 34.87 24.38 11.73 15.44 22.01 32.48 33.28 48.34l30.87 44.26c6.14 8.92 28.09 34.34 13.38 42.77-17.61 10.1-39.15-28.24-47.16-40.55l-20.57 11.95-11.32 6.92c2.65 12.01 19.76 71.37-4.55 68.86-16.81-1.74-16.9-40.1-21.63-54.8-5.5 1.56-15.11 4.21-18.83-1.04-7.1-10.01 8.77-19.95 14.38-23.66-6.22-32.27-15.58-78.2-12.96-111.04 0.59-7.5 4.22-12.19 10.24-16.39zm28.35 112.71l15.8-9.91 8.09-4.47c-7.17-10.6-27.48-42.73-35.12-49.49 2.62 14.7 10.15 51.08 11.23 63.87z"/>
		<path class="s0" d="m574.28 202.31c3.7 0.26 8.11 0.65 11.16 2.96 3.14 2.39 5.04 6.85 6.53 10.42 8.81 21.13 15.35 43.76 23.21 65.35 5.99 16.44 21.2 52.04 23.84 67.09 0.91 5.23 1.14 12.12-2.32 16.49-1.54 1.95-3.76 2.94-6.21 3.05-19 0.83-82.87-61.85-99.94-77.27l29.12 65.28c4.67 10.71 9.81 21.84 13.34 32.99 3.84 12.15-0.53 15.21-11.64 17.86-1.6-0.48-3.23-1-4.65-1.89-4.3-2.68-7.39-8-9.84-12.29-12.24-21.45-53.35-114.93-57.33-137.38-0.79-4.44 0.76-9.66 3.45-13.22 1.56-2.07 3.67-3.21 6.23-3.49 5.7-0.64 11.63 2.11 16.34 5.07 13.52 8.47 25.32 20.94 36.78 31.98 15.59 15.03 31.06 30.22 47.85 43.93-9.26-23.41-34.11-83.52-34.08-110.18 0-2.86 5.51-5.46 8.16-6.75z"/>
		<path class="s1" d="m961.59 630.81c30.51-5.99 68.78 0.78 65.83 41.44-1.41 19.55-21.4 36.79-36.16 48.17 21.23 17.71 42.61 38.07 61.1 58.51 16.72 18.48-4.06 31.41-20.89 18.59-9.04-6.89-15.39-13.86-23.25-21.95q-21.68-20.51-42.41-42.01c4.28 18.14 16.06 59.27 10.43 75.76-1.09 3.18-3.07 6.19-6.26 7.56-3.59 1.54-8.47 0.81-12-0.69-4.41-1.87-7.66-5-9.48-9.46-7.23-17.82-27.16-144.44-20.88-156.91 5.7-11.34 22.75-15.71 33.97-19.01zm1 77.98c6.18-4.4 12.93-9.01 18.89-13.59 7.72-6.65 17.93-15.4 18.29-26.18 0.67-20.48-21.8-17.66-34.01-14.24l-12.5 4.65c3.05 16.21 5.99 33.28 9.33 49.36z"/>
		<path class="s0" d="m337.64 329.12q3.22-0.15 6.43-0.03c13.24 0.44 20.43 4.35 29.39 13.52 11.02 11.28 19.28 35.56-5.99 33.09-7.08-0.69-9.63-14.58-13.59-17.73-18.21-14.46-33.01 5.75-37.09 22.36-2.31 9.39-3.79 14.76-4.35 23.38-2.32 36.56 9.28 75.44 32.37 104.12 11.35 14.1 36.17 24.66 47.05 3.76 7.12-13.68-6.35-43.47 20.41-41.41l1.05 0.09c28.07 17.9 5.01 73.78-27.3 79.78-103.32 19.17-149.87-204.51-48.38-220.93z"/>
		<path class="s1" d="m1054.68 608.52c12.99-2.94 17.96 2.54 20.25 15.17 3.56 19.75 8.53 139.09 36.63 133.5 32.97-22.18 2.07-144.26 11.44-157.42 1.89-2.6 4.76-4.28 7.94-4.67 14.28-1.84 17.09 17.59 18.65 27.6l0.75 4.66c6.27 38.67 16.95 141.79-37.69 152.15-41.21 7.82-55.54-51.23-58.69-81.63-2-19.32-10.61-74.47 0.72-89.36z"/>
		<path class="s0" d="m675.23 161.78c10.23-0.37 29.73 1.52 32.85 11.91 6.87 22.95-22.48 7.18-30.03 10.34-16.85 7.05-19.6 27.23-20.43 43.44-1.33 26.02 6.23 66.13 30.88 79.55 7.19 3.85 15.49 0.95 22.49-1.81 11.39-14.15 9.75-32.38 9.46-49.41-10.56 2.83-37.07 12.06-42.23-2.02 1.34-13.01 24.46-17.51 34.76-19.96 23.06-4.8 32.21 0.69 34.28 24.91 2.36 22.47-3.31 57.62-25.44 69.11-46.21 23.14-82.05-20.94-90.01-63.01-7.5-39.7-4.7-92.71 43.42-103.05z"/>
		<path class="s0" d="m830.23 146.28c19.08-0.44 18.95 11.86 20.82 28.21 4.09 35.77 9.58 81.42-12.11 112.77-11.98 17.31-39.21 20.54-55.16 6.63-23.58-21.26-29.05-65.43-32.21-95.09-0.25-8.85-0.69-17.77-0.11-26.72 0.51-7.88 3.66-19.09 13.86-17.91 4.69 0.54 8 6.27 9.21 10.46 2.41 8.36 2.14 17.63 3.22 26.24 1.87 15.46 3.78 31.32 7.15 46.5 2.86 10.58 5.88 25 12.52 33.82 12.44 16.54 21.28 4.8 24.86-8.94 6.75-25.88 4.72-51.43 2.82-77.71-0.68-9.46-1.46-18.63-1.37-28.08 0.04-4.75 2.18-6.39 5.59-9.38z"/>
		<path class="s1" d="m1177.38 583.63q1.95-0.31 3.91-0.49c2.4-0.21 7.8 0.36 9.16 2.31 5.36 7.78 2.16 28.91 3.88 39.44 1.71 10.41 2.37 24.45 10.25 32.55 0.96 0.98 4.02 1.47 5.05 0.89 22.51-12.65 10.38-59.89 20.57-78.02 1.14-1.75 3.77-4.14 6.02-4.11 14.59 0.23 14.55 19.29 15.05 28.42 0.67 27.66-6.18 69.1-39.44 74.04-8.55 1.34-17.27-0.92-24.09-6.22-20.3-15.58-24.65-70.08-10.36-88.81z"/>
		<path class="s2" d="m1086.39 484.49c2.58-5.15 8.03-10.03 12.26-14.09-2.37 4.94-6.23 13.66-9.34 17.78l-2.24 2.14-1.24-0.05c0.08-2.23 0.24-3.56 0.56-5.78z"/>
	</g>
</svg>