<svg version="1.2" xmlns="http://www.w3.org/2000/svg" viewBox="0 0 32 32" width="32" height="32">
	<style>
		.s0 { fill: #272525 } 
		.s1 { fill: #fecc05 } 
	</style>
	<g id="Layer 1">
		<path class="s0" d="m27.45 10.26c-0.55-0.35-0.95-0.82-1.07-1.45-0.22-1.16 1.25-0.02 1.53 0.22q0.08 0.06 0.15 0.12c0.01-0.23 0.02-0.7 0.29-0.77 0.49 0.1 0.72 1.15 0.78 1.56 0.89 0.25 1.03 0.44 1.69 1.06 0.24 0.23 1.12 0.41 1.01 0.9-0.11 0.29-0.51 0.52-0.81 0.53-0.16 0.01-0.38-0.09-0.53-0.09-0.63 0-1.02 0.07-1.64-0.14-0.83 0.77-1.98 2.49-3.08 2.73l-0.06-0.02c0.1-0.13 0.21-0.37 0.27-0.52-0.11 0.11-0.28 0.26-0.34 0.4l-0.03 0.03c-0.57 0.85 0.26 2.68-1.21 2.96-0.42 0.09-1.18 0.12-1.3-0.42q-0.01-0.09 0.06-0.15c0.13-0.02 0.2 0 0.31-0.08 0.07-0.15 0.03-0.15 0.14-0.25 0.29-0.06 0.3 0.23 0.52 0.16 0.4-0.11 0.15-0.96 0.05-1.21-0.43-1.14-0.78-1.33 0.16-2.32-1.1 0.33-0.99 1.2-0.59 2.05-1.15 0.41-1.85 0.51-3.09 0.46 0.3-1.08 0.06-2.1-0.92-2.75 0.5 0.9 0.75 1.8 0.46 2.81-0.66 2.4-3.21 2.49-4.45 4.26-0.83 1.18 0.77 2.7-1.19 4.83-0.31 0.34-0.67 0.73-1.08 0.95-0.14 0.07-0.33 0.14-0.5 0.09q-0.13-0.03-0.2-0.15-0.03-0.09-0.01-0.15c0.1-0.21 0.39-0.34 0.53-0.51-0.24 0.04-0.66 0.17-0.75-0.15 0.01-0.22 0.28-0.54 0.41-0.7 0.78-0.91 1.09-2.22 0.84-3.38-0.09-0.49-0.24-0.84-0.22-1.35 0.28-0.37 0.64-0.57 1-0.86 0.68-0.57 1.44-1.54 1.32-2.47q0-0.03 0-0.06c-0.58-0.59-0.84-0.62-1.18-1.43-1.05 0.48-2.08 1.45-3.04 2.13-2.54 1.78-5.87 2.88-8.93 1.81-0.46-0.16-1.49-0.58-1.72-1.04-0.05-0.09-0.03-0.14 0-0.21 0.06-0.04 0.09-0.06 0.16-0.03 0.55 0.16 0.98 0.33 1.55 0.43 2.45 0.38 4.76-0.49 6.75-1.9q1.04-0.73 1.97-1.62c0.45-0.41 0.87-0.88 1.32-1.29 1.21-1.14 2.65-2.02 4.21-2.59 0.27-0.11 0.97-0.34 1.25-0.35 0.93-0.07 2.18 0 3.07 0.15q0.52 0.09 1.04 0.25c1.19 0.39 2.9 1.21 4.13 0.43 0.25-0.16 0.75-0.7 0.97-0.91z"/>
		<path class="s0" d="m6.42 8.66c0.49-0.03 0.73 0.37 1 0.72 0.35 0.45 0.64 0.94 0.96 1.39l0.9 1.3c0.18 0.25 0.81 0.98 0.4 1.23-0.52 0.29-1.14-0.82-1.37-1.18l-0.6 0.35-0.33 0.19c0.07 0.36 0.57 2.07-0.13 2.01-0.49-0.06-0.5-1.17-0.62-1.59-0.16 0.04-0.44 0.12-0.55-0.03-0.21-0.29 0.24-0.58 0.4-0.69-0.17-0.94-0.44-2.26-0.36-3.22q0.03-0.3 0.3-0.48zm0.81 3.27l0.47-0.29 0.23-0.12c-0.21-0.3-0.8-1.24-1.02-1.44 0.08 0.43 0.3 1.48 0.32 1.85z"/>
		<path class="s0" d="m10.79 6.63c0.12 0 0.24 0.01 0.33 0.08 0.09 0.07 0.15 0.2 0.19 0.3 0.24 0.62 0.45 1.27 0.67 1.9 0.17 0.48 0.62 1.5 0.69 1.94 0.03 0.15 0.04 0.35-0.06 0.48q-0.07 0.08-0.19 0.08c-0.55 0.02-2.4-1.79-2.89-2.24l0.84 1.9q0.22 0.46 0.38 0.96c0.12 0.34-0.01 0.44-0.33 0.51q-0.07-0.01-0.13-0.06c-0.12-0.07-0.22-0.22-0.29-0.35-0.34-0.62-1.55-3.32-1.66-3.98-0.02-0.12 0.02-0.28 0.1-0.38q0.07-0.09 0.18-0.11c0.17-0.02 0.34 0.06 0.48 0.15 0.39 0.25 0.73 0.61 1.07 0.92q0.65 0.67 1.37 1.28c-0.26-0.68-0.98-2.42-0.98-3.2 0-0.08 0.17-0.14 0.23-0.18z"/>
		<path class="s1" d="m22.01 19.04c0.89-0.17 2 0.02 1.91 1.2-0.04 0.57-0.62 1.07-1.04 1.4 0.62 0.51 1.23 1.1 1.76 1.69 0.5 0.54-0.11 0.91-0.6 0.54-0.25-0.2-0.44-0.41-0.68-0.64q-0.62-0.59-1.21-1.21c0.11 0.52 0.46 1.71 0.3 2.19q-0.05 0.14-0.19 0.22c-0.1 0.04-0.25 0.02-0.34-0.03q-0.21-0.07-0.28-0.27c-0.22-0.52-0.78-4.18-0.61-4.55 0.17-0.32 0.66-0.45 0.98-0.54zm0.04 2.26q0.27-0.2 0.55-0.4c0.22-0.18 0.51-0.44 0.52-0.76 0.03-0.59-0.63-0.51-0.98-0.41l-0.37 0.13q0.13 0.73 0.28 1.44z"/>
		<path class="s0" d="m3.94 10.29q0.1 0 0.18 0c0.39 0.01 0.6 0.13 0.85 0.4 0.33 0.32 0.56 1.04-0.17 0.95-0.19-0.01-0.28-0.41-0.39-0.51-0.53-0.41-0.96 0.17-1.08 0.66-0.06 0.26-0.1 0.42-0.12 0.67-0.06 1.05 0.27 2.19 0.94 3.01 0.32 0.42 1.04 0.72 1.36 0.11 0.21-0.39-0.18-1.25 0.59-1.19h0.04c0.82 0.51 0.14 2.14-0.79 2.31-3 0.55-4.35-5.93-1.41-6.41z"/>
		<path class="s1" d="m24.71 18.39c0.38-0.08 0.53 0.08 0.59 0.44 0.11 0.57 0.25 4.03 1.07 3.87 0.95-0.65 0.06-4.19 0.33-4.56q0.08-0.12 0.23-0.14c0.4-0.06 0.48 0.51 0.53 0.81l0.03 0.13c0.18 1.12 0.48 4.1-1.1 4.4-1.19 0.23-1.6-1.48-1.7-2.36-0.06-0.56-0.3-2.16 0.02-2.59z"/>
		<path class="s0" d="m13.72 5.45c0.29-0.01 0.86 0.04 0.96 0.34 0.19 0.67-0.66 0.21-0.88 0.3-0.48 0.21-0.57 0.8-0.59 1.26-0.04 0.75 0.19 1.92 0.9 2.31 0.2 0.11 0.45 0.02 0.64-0.05 0.33-0.41 0.28-0.95 0.28-1.43-0.3 0.08-1.08 0.35-1.23-0.07 0.05-0.37 0.71-0.51 1.01-0.58 0.67-0.13 0.94 0.03 1 0.73 0.06 0.65-0.1 1.67-0.74 2-1.34 0.68-2.37-0.6-2.6-1.83-0.22-1.15-0.14-2.69 1.25-2.98z"/>
		<path class="s0" d="m18.21 5c0.55-0.01 0.55 0.35 0.61 0.82 0.12 1.03 0.28 2.36-0.35 3.27-0.35 0.5-1.14 0.58-1.6 0.19-0.69-0.62-0.84-1.9-0.94-2.76q-0.02-0.38 0-0.78c0.01-0.22 0.11-0.54 0.4-0.51 0.14 0.01 0.23 0.17 0.27 0.31 0.06 0.24 0.06 0.51 0.09 0.75q0.07 0.68 0.2 1.35c0.09 0.3 0.19 0.72 0.37 0.97 0.36 0.49 0.62 0.15 0.72-0.25 0.2-0.76 0.14-1.49 0.08-2.25q-0.04-0.42-0.04-0.82c0-0.13 0.07-0.18 0.17-0.27z"/>
		<path class="s1" d="m28.27 17.66q0.06 0 0.11 0c0.07-0.01 0.23 0 0.26 0.06 0.16 0.22 0.06 0.84 0.12 1.15 0.05 0.3 0.08 0.7 0.3 0.93 0.03 0.03 0.11 0.05 0.14 0.03 0.66-0.36 0.31-1.73 0.6-2.25 0.04-0.05 0.11-0.12 0.17-0.12 0.42 0 0.42 0.56 0.44 0.81 0.02 0.8-0.18 2.02-1.15 2.15q-0.38 0.06-0.69-0.18c-0.58-0.44-0.72-2.03-0.3-2.58z"/>
		<path class="s0" d="m24.31 15.04c0.05-0.12 0.19-0.24 0.29-0.33-0.06 0.12-0.15 0.32-0.23 0.43l-0.04 0.05h-0.04q0.01-0.08 0.02-0.15z"/>
		<g id="Layer 1">
		</g>
	</g>
</svg>