<svg version="1.2" xmlns="http://www.w3.org/2000/svg" viewBox="0 0 32 32" width="32" height="32">
	<defs>
		<linearGradient id="g1" x2="1" gradientUnits="userSpaceOnUse" gradientTransform="matrix(-0.098,-0.1,.358,-0.35,24.311,15.426)">
			<stop offset="0" stop-color="#ffffff" stop-opacity="0"/>
			<stop offset="1" stop-color="#f7f7f7" stop-opacity=".035"/>
		</linearGradient>
	</defs>
	<style>
		.s0 { fill: #e9e9e3 } 
		.s1 { fill: #fecc05 } 
		.s2 { fill: url(#g1) } 
	</style>
	<g id="Layer 1">
		<path class="s0" d="m27.44 10.46c-0.57-0.37-0.98-0.85-1.11-1.51-0.23-1.2 1.3-0.02 1.59 0.23q0.08 0.06 0.15 0.13c0.02-0.24 0.03-0.73 0.31-0.8 0.5 0.1 0.74 1.19 0.8 1.62 0.93 0.25 1.07 0.45 1.76 1.09 0.25 0.24 1.16 0.43 1.05 0.94-0.12 0.3-0.53 0.54-0.84 0.55-0.17 0.01-0.4-0.09-0.55-0.09-0.66 0-1.06 0.07-1.71-0.15-0.86 0.8-2.05 2.58-3.19 2.83l-0.06-0.02c0.1-0.13 0.21-0.38 0.28-0.54-0.12 0.12-0.29 0.27-0.36 0.42l-0.03 0.03c-0.59 0.88 0.27 2.78-1.25 3.07-0.44 0.09-1.23 0.12-1.35-0.44-0.01-0.07 0.01-0.1 0.06-0.15 0.14-0.02 0.21 0 0.32-0.08 0.08-0.16 0.03-0.16 0.15-0.26 0.3-0.07 0.31 0.23 0.54 0.16 0.41-0.11 0.15-0.99 0.05-1.25-0.45-1.19-0.81-1.38 0.16-2.41-1.14 0.34-1.02 1.24-0.61 2.13-1.19 0.42-1.92 0.53-3.2 0.47 0.31-1.12 0.06-2.18-0.96-2.85 0.52 0.93 0.78 1.87 0.48 2.92-0.69 2.49-3.33 2.58-4.62 4.42-0.86 1.22 0.8 2.8-1.23 5.01-0.32 0.35-0.7 0.75-1.12 0.98-0.15 0.07-0.34 0.15-0.52 0.1q-0.14-0.04-0.21-0.16-0.03-0.09-0.01-0.16c0.1-0.21 0.41-0.35 0.55-0.53-0.25 0.05-0.68 0.18-0.78-0.15 0.01-0.23 0.29-0.56 0.43-0.73 0.81-0.94 1.13-2.3 0.87-3.5-0.09-0.51-0.25-0.87-0.23-1.4 0.29-0.39 0.67-0.6 1.04-0.9 0.7-0.59 1.49-1.59 1.37-2.56q0-0.03 0-0.06c-0.6-0.61-0.87-0.64-1.23-1.49-1.09 0.5-2.15 1.51-3.15 2.21-2.64 1.85-6.09 2.99-9.26 1.88-0.48-0.16-1.55-0.6-1.79-1.08-0.05-0.09-0.03-0.14 0-0.21 0.06-0.05 0.09-0.07 0.17-0.04 0.57 0.17 1.01 0.35 1.61 0.45 2.54 0.4 4.93-0.51 7-1.97q1.08-0.76 2.04-1.68c0.47-0.43 0.9-0.91 1.37-1.34 1.26-1.18 2.75-2.1 4.37-2.69 0.28-0.11 1.01-0.35 1.3-0.36 0.96-0.07 2.26 0 3.18 0.16q0.54 0.09 1.08 0.26c1.24 0.4 3.01 1.25 4.29 0.44 0.25-0.16 0.77-0.72 1-0.94z"/>
		<path class="s0" d="m5.62 8.8c0.51-0.03 0.76 0.38 1.04 0.74 0.36 0.47 0.66 0.98 1 1.45l0.93 1.34c0.19 0.26 0.84 1.02 0.41 1.28-0.53 0.3-1.18-0.85-1.42-1.22l-0.62 0.36-0.34 0.2c0.07 0.37 0.59 2.15-0.14 2.08-0.5-0.06-0.51-1.21-0.64-1.65-0.17 0.04-0.46 0.13-0.57-0.03-0.22-0.3 0.25-0.6 0.42-0.71-0.18-0.98-0.46-2.35-0.38-3.34q0.03-0.32 0.31-0.5zm0.84 3.39l0.49-0.3 0.24-0.13c-0.22-0.31-0.83-1.28-1.06-1.49 0.08 0.45 0.31 1.54 0.33 1.92z"/>
		<path class="s0" d="m10.16 6.69c0.12 0 0.25 0.01 0.34 0.08 0.09 0.08 0.15 0.21 0.2 0.32 0.25 0.64 0.46 1.31 0.69 1.97 0.18 0.49 0.64 1.55 0.72 2.01 0.03 0.16 0.04 0.36-0.07 0.5q-0.07 0.08-0.19 0.08c-0.57 0.02-2.49-1.86-3-2.32l0.87 1.97q0.23 0.48 0.4 0.99c0.12 0.36-0.01 0.46-0.35 0.53q-0.07-0.01-0.13-0.06c-0.13-0.07-0.23-0.23-0.3-0.36-0.36-0.65-1.61-3.45-1.73-4.13-0.02-0.13 0.03-0.29 0.11-0.4q0.07-0.09 0.19-0.11c0.17-0.02 0.35 0.06 0.49 0.16 0.41 0.25 0.76 0.63 1.11 0.95q0.68 0.7 1.43 1.33c-0.28-0.71-1.02-2.51-1.02-3.32 0-0.08 0.17-0.15 0.24-0.19z"/>
		<path class="s1" d="m21.8 19.57c0.92-0.18 2.07 0.02 1.98 1.24-0.04 0.59-0.64 1.11-1.08 1.45 0.64 0.53 1.28 1.15 1.83 1.76 0.51 0.56-0.12 0.94-0.63 0.56-0.26-0.21-0.45-0.43-0.7-0.67q-0.65-0.61-1.26-1.25c0.12 0.54 0.48 1.77 0.31 2.27q-0.05 0.15-0.19 0.23c-0.11 0.04-0.26 0.02-0.36-0.03q-0.21-0.08-0.29-0.28c-0.22-0.54-0.81-4.34-0.63-4.72 0.18-0.33 0.69-0.47 1.02-0.56zm0.04 2.34q0.28-0.21 0.57-0.41c0.23-0.19 0.53-0.46 0.54-0.79 0.03-0.61-0.65-0.53-1.02-0.43l-0.38 0.14q0.13 0.75 0.29 1.49z"/>
		<path class="s0" d="m3.05 10.49q0.1 0 0.19 0c0.4 0.01 0.62 0.13 0.88 0.41 0.34 0.34 0.58 1.08-0.18 0.99-0.2-0.01-0.29-0.43-0.4-0.53-0.55-0.43-1 0.18-1.12 0.68-0.07 0.27-0.11 0.44-0.13 0.7-0.06 1.09 0.28 2.27 0.98 3.12 0.33 0.44 1.08 0.75 1.41 0.12 0.22-0.41-0.19-1.3 0.61-1.24h0.04c0.85 0.53 0.15 2.22-0.82 2.4-3.11 0.57-4.51-6.15-1.46-6.65z"/>
		<path class="s1" d="m24.6 18.89c0.39-0.08 0.55 0.09 0.61 0.46 0.11 0.59 0.26 4.18 1.11 4.01 0.99-0.67 0.06-4.34 0.34-4.73q0.09-0.12 0.24-0.14c0.42-0.06 0.5 0.53 0.55 0.84l0.03 0.13c0.19 1.16 0.5 4.26-1.14 4.57-1.23 0.24-1.66-1.54-1.76-2.45-0.06-0.58-0.31-2.24 0.02-2.69z"/>
		<path class="s0" d="m13.2 5.47c0.3-0.01 0.89 0.04 0.99 0.35 0.2 0.69-0.68 0.22-0.91 0.31-0.5 0.22-0.59 0.83-0.61 1.31-0.04 0.78 0.19 1.99 0.93 2.39 0.21 0.12 0.47 0.03 0.67-0.05 0.34-0.42 0.29-0.98 0.29-1.48-0.32 0.08-1.12 0.36-1.28-0.07 0.05-0.39 0.74-0.53 1.05-0.6 0.69-0.14 0.97 0.03 1.03 0.75 0.07 0.68-0.1 1.74-0.76 2.08-1.39 0.7-2.46-0.63-2.7-1.9-0.23-1.19-0.15-2.79 1.3-3.09z"/>
		<path class="s0" d="m17.86 5c0.57-0.01 0.57 0.36 0.63 0.85 0.12 1.07 0.29 2.45-0.37 3.39-0.36 0.52-1.18 0.61-1.66 0.2-0.71-0.64-0.87-1.97-0.97-2.86q-0.02-0.4 0-0.81c0.01-0.23 0.11-0.56 0.41-0.53 0.15 0.01 0.24 0.18 0.28 0.32 0.07 0.25 0.07 0.53 0.1 0.78q0.07 0.7 0.21 1.4c0.09 0.31 0.19 0.75 0.38 1.01 0.37 0.5 0.64 0.15 0.75-0.26 0.2-0.79 0.14-1.55 0.08-2.34q-0.04-0.43-0.04-0.85c0-0.13 0.07-0.19 0.17-0.28z"/>
		<path class="s1" d="m28.29 18.14q0.06-0.01 0.12-0.01c0.07-0.01 0.24 0.01 0.27 0.07 0.16 0.23 0.06 0.87 0.12 1.19 0.05 0.31 0.08 0.73 0.31 0.97 0.03 0.03 0.12 0.05 0.15 0.03 0.68-0.38 0.32-1.8 0.62-2.34 0.04-0.05 0.11-0.12 0.18-0.12 0.43 0 0.43 0.58 0.45 0.84 0.02 0.83-0.18 2.09-1.19 2.23q-0.39 0.06-0.72-0.19c-0.6-0.46-0.74-2.1-0.31-2.67z"/>
		<path class="s2" d="m24.18 15.42c0.06-0.13 0.2-0.25 0.3-0.35-0.06 0.13-0.15 0.34-0.23 0.45l-0.05 0.05h-0.04q0.01-0.08 0.02-0.15z"/>
		<g id="Layer 1">
		</g>
	</g>
</svg>