<svg version="1.2" xmlns="http://www.w3.org/2000/svg" viewBox="0 0 32 32" width="32" height="32">
	<defs>
		<linearGradient id="g1" x2="1" gradientUnits="userSpaceOnUse" gradientTransform="matrix(-0.098,-0.1,.37,-0.362,24.311,15.426)">
			<stop offset="0" stop-color="#ffffff" stop-opacity="0"/>
			<stop offset="1" stop-color="#f7f7f7" stop-opacity=".035"/>
		</linearGradient>
	</defs>
	<style>
		.s0 { fill: #282821 } 
		.s1 { fill: #e9e9e3 } 
		.s2 { fill: #fecc05 } 
		.s3 { fill: url(#g1) } 
	</style>
	<path id="Forma 1" fill-rule="evenodd" class="s0" d="m33 0v33h-34v-33z"/>
	<path class="s1" d="m25.74 11.52c-0.47-0.3-0.81-0.7-0.92-1.25-0.19-0.99 1.08-0.01 1.32 0.19q0.06 0.05 0.12 0.11c0.02-0.2 0.03-0.6 0.26-0.66 0.41 0.08 0.61 0.98 0.66 1.34 0.77 0.21 0.89 0.37 1.46 0.9 0.21 0.2 0.96 0.36 0.87 0.78-0.1 0.25-0.44 0.45-0.7 0.46-0.14 0.01-0.33-0.08-0.45-0.08-0.55 0-0.88 0.06-1.42-0.12-0.71 0.66-1.7 2.14-2.64 2.34l-0.05-0.01c0.08-0.11 0.17-0.32 0.23-0.45-0.1 0.1-0.24 0.22-0.3 0.35l-0.02 0.02c-0.49 0.73 0.22 2.31-1.04 2.55-0.36 0.07-1.02 0.1-1.12-0.37-0.01-0.06 0.01-0.08 0.05-0.12 0.12-0.02 0.18 0 0.27-0.07 0.06-0.13 0.02-0.13 0.12-0.21 0.25-0.06 0.26 0.19 0.45 0.13 0.34-0.09 0.12-0.82 0.04-1.04-0.37-0.98-0.67-1.14 0.13-1.99-0.94 0.28-0.84 1.02-0.5 1.76-0.99 0.35-1.59 0.44-2.65 0.39 0.25-0.93 0.05-1.81-0.8-2.36 0.43 0.77 0.65 1.55 0.4 2.42-0.57 2.06-2.76 2.14-3.83 3.66-0.71 1.01 0.66 2.32-1.02 4.15-0.26 0.29-0.58 0.62-0.93 0.81-0.12 0.06-0.28 0.13-0.43 0.09q-0.11-0.04-0.17-0.14-0.03-0.07-0.01-0.13c0.08-0.17 0.34-0.29 0.46-0.44-0.21 0.04-0.57 0.15-0.65-0.12 0.01-0.19 0.24-0.47 0.36-0.61 0.67-0.78 0.93-1.9 0.72-2.9-0.08-0.42-0.21-0.72-0.19-1.16 0.24-0.32 0.55-0.49 0.86-0.74 0.58-0.49 1.23-1.32 1.13-2.12q0-0.03 0-0.05c-0.49-0.51-0.72-0.53-1.02-1.24-0.9 0.42-1.78 1.25-2.61 1.83-2.18 1.54-5.04 2.48-7.67 1.56-0.4-0.13-1.28-0.5-1.48-0.89-0.04-0.08-0.03-0.12 0-0.18 0.05-0.04 0.07-0.06 0.14-0.03 0.47 0.14 0.84 0.29 1.33 0.37 2.11 0.33 4.09-0.42 5.8-1.63q0.9-0.63 1.69-1.39c0.39-0.36 0.75-0.76 1.14-1.11 1.04-0.98 2.28-1.74 3.62-2.23 0.23-0.09 0.84-0.29 1.08-0.3 0.79-0.06 1.87 0 2.63 0.13q0.45 0.08 0.9 0.22c1.02 0.33 2.49 1.03 3.55 0.36 0.21-0.13 0.64-0.59 0.83-0.78z"/>
	<path class="s1" d="m7.66 10.15c0.42-0.03 0.63 0.31 0.86 0.61 0.3 0.39 0.55 0.81 0.83 1.2l0.77 1.11c0.16 0.22 0.7 0.85 0.34 1.06-0.44 0.25-0.98-0.7-1.18-1.01l-0.51 0.3-0.28 0.17c0.06 0.3 0.49 1.78-0.12 1.72-0.41-0.05-0.42-1-0.53-1.37-0.14 0.04-0.38 0.11-0.47-0.02-0.18-0.25 0.21-0.5 0.35-0.59-0.15-0.81-0.38-1.95-0.32-2.77q0.03-0.26 0.26-0.41zm0.7 2.81l0.4-0.25 0.2-0.11c-0.18-0.26-0.69-1.06-0.88-1.23 0.07 0.37 0.26 1.27 0.28 1.59z"/>
	<path class="s1" d="m11.42 8.4c0.1 0 0.21 0.01 0.28 0.07 0.08 0.06 0.13 0.17 0.17 0.26 0.21 0.53 0.38 1.09 0.57 1.63 0.15 0.41 0.53 1.29 0.6 1.67 0.02 0.13 0.03 0.3-0.06 0.41q-0.06 0.07-0.16 0.07c-0.47 0.02-2.06-1.54-2.48-1.92l0.72 1.63q0.19 0.4 0.33 0.82c0.1 0.3-0.01 0.38-0.29 0.44q-0.06-0.01-0.11-0.05c-0.11-0.06-0.19-0.19-0.25-0.3-0.3-0.54-1.33-2.86-1.43-3.42-0.02-0.11 0.02-0.24 0.09-0.33q0.06-0.08 0.16-0.09c0.14-0.02 0.29 0.05 0.4 0.13 0.34 0.21 0.63 0.52 0.92 0.79q0.57 0.58 1.19 1.1c-0.23-0.59-0.85-2.08-0.85-2.75 0-0.07 0.14-0.13 0.2-0.16z"/>
	<path class="s2" d="m21.07 19.07c0.76-0.15 1.71 0.02 1.64 1.03-0.04 0.49-0.53 0.92-0.9 1.2 0.53 0.44 1.06 0.95 1.52 1.46 0.42 0.46-0.1 0.78-0.52 0.46-0.22-0.17-0.38-0.35-0.58-0.55q-0.54-0.51-1.05-1.04c0.1 0.45 0.4 1.47 0.26 1.88q-0.04 0.13-0.16 0.19c-0.09 0.04-0.21 0.02-0.3-0.02q-0.17-0.07-0.24-0.23c-0.18-0.45-0.67-3.6-0.52-3.91 0.15-0.28 0.57-0.39 0.85-0.47zm0.03 1.94q0.23-0.17 0.47-0.34c0.19-0.16 0.44-0.38 0.45-0.65 0.02-0.51-0.54-0.44-0.85-0.36l-0.31 0.12q0.11 0.62 0.24 1.23z"/>
	<path class="s1" d="m5.53 11.55q0.08 0 0.16 0c0.33 0.01 0.51 0.11 0.73 0.34 0.28 0.28 0.48 0.89-0.15 0.82-0.17-0.01-0.24-0.36-0.33-0.44-0.46-0.36-0.83 0.15-0.93 0.56-0.06 0.23-0.09 0.37-0.11 0.58-0.05 0.91 0.23 1.88 0.81 2.59 0.28 0.36 0.9 0.62 1.17 0.1 0.18-0.34-0.16-1.08 0.51-1.03h0.03c0.7 0.44 0.12 1.84-0.68 1.99-2.58 0.47-3.74-5.1-1.21-5.51z"/>
	<path class="s2" d="m23.39 18.51c0.32-0.07 0.45 0.07 0.5 0.38 0.09 0.49 0.22 3.46 0.92 3.32 0.82-0.55 0.05-3.59 0.28-3.92q0.08-0.1 0.2-0.11c0.35-0.05 0.42 0.44 0.46 0.69l0.02 0.11c0.16 0.96 0.42 3.53-0.94 3.79-1.02 0.2-1.38-1.28-1.46-2.03-0.05-0.48-0.26-1.86 0.02-2.23z"/>
	<path class="s1" d="m13.94 7.39c0.25-0.01 0.74 0.03 0.82 0.29 0.17 0.57-0.56 0.18-0.75 0.26-0.42 0.18-0.49 0.68-0.51 1.08-0.03 0.65 0.16 1.65 0.77 1.98 0.18 0.1 0.39 0.03 0.56-0.04 0.28-0.35 0.24-0.81 0.24-1.23-0.27 0.07-0.93 0.3-1.06-0.05 0.04-0.33 0.61-0.44 0.87-0.5 0.57-0.12 0.8 0.02 0.85 0.62 0.06 0.56-0.08 1.44-0.63 1.72-1.15 0.58-2.04-0.52-2.24-1.57-0.19-0.99-0.12-2.31 1.08-2.56z"/>
	<path class="s1" d="m17.8 7c0.47-0.01 0.47 0.3 0.52 0.7 0.1 0.89 0.24 2.03-0.3 2.81-0.3 0.43-0.98 0.51-1.38 0.17-0.59-0.53-0.72-1.63-0.8-2.37q-0.02-0.33 0-0.67c0.01-0.19 0.09-0.47 0.34-0.44 0.12 0.01 0.2 0.15 0.23 0.26 0.06 0.21 0.06 0.44 0.08 0.65q0.06 0.58 0.18 1.16c0.07 0.26 0.15 0.62 0.31 0.84 0.31 0.41 0.53 0.12 0.62-0.22 0.17-0.65 0.12-1.28 0.07-1.94q-0.03-0.35-0.03-0.7c0-0.11 0.05-0.16 0.14-0.23z"/>
	<path class="s2" d="m26.44 17.89q0.05-0.01 0.1-0.01c0.06-0.01 0.2 0.01 0.23 0.06 0.13 0.19 0.05 0.72 0.1 0.98 0.04 0.26 0.06 0.61 0.25 0.81 0.03 0.02 0.1 0.04 0.13 0.02 0.56-0.31 0.26-1.49 0.51-1.94 0.03-0.04 0.09-0.1 0.15-0.1 0.36 0 0.36 0.48 0.37 0.7 0.02 0.69-0.15 1.73-0.98 1.85q-0.33 0.05-0.6-0.16c-0.5-0.38-0.61-1.74-0.26-2.21z"/>
	<path class="s3" d="m24.18 15.42c0.06-0.13 0.2-0.25 0.3-0.35-0.06 0.13-0.15 0.34-0.23 0.45l-0.05 0.05h-0.04q0.01-0.08 0.02-0.15z"/>
	<g id="Layer 1">
	</g>
</svg>