<svg version="1.2" xmlns="http://www.w3.org/2000/svg" viewBox="0 0 1408 768" width="1408" height="768">
	<style>
		.s0 { fill: #232323 } 
	</style>
	<g id="Layer 1">
		<path class="s0" d="m627.48 342.15c18.7 0.71 30.57 12.11 30.33 31.33-0.27 21.51-14.11 36.87-28.66 51.17 8.08 17.32 32.63 63.38 58.77 48.44 4.56-2.61 8.71-10.96 14.93-9.69 0.8 1.49 1.14 1.82 0.76 3.73-5.04 25.63-31.34 37.81-54.26 24.24-7.59-4.5-11.46-8.91-16.89-16.12-9.03-13.55-13.12-23.87-18.92-38.92l-9.39 4.88c-0.28 13.17 0.54 26.34 2.45 39.38 2.22 1.65 10.85 7.25 8.11 10.46-5.27 5.37-16.3 5.92-23.5 7.21-5.22 0.93-17.47 2.91-17.78-4.59 1.65-4.11 4.43-5.62 8.07-8.13 0.44-16.24-0.35-32.15-0.58-48.34q-0.23-32.55 0.41-65.09c-4.11-1.11-5.64-1.13-6.86-5.24 1.52-12.37 42.39-23.67 53.01-24.72zm-23.34 21.74q-0.42 29.48-0.5 58.97c4.36-2.88 6.5-4.35 10.39-7.84 4.18-4.37 6.44-7.11 9.54-12.43 7.24-12.42 13.6-43.44-9.5-42.1q-0.51 0.03-1.01 0.08c-2.94 1.03-6.09 2.06-8.92 3.32z"/>
		<path class="s0" d="m933.15 269.09c1.42 0.01 3.91 0.13 5.11 0.98 6.22 4.41 19.21 75.44 21.74 87.13 4.17-3.58 14.32-14.03 20.01-10.97 3.33 7.56-11.76 20.83-16.72 25.29 4.09 15.84 10.26 51.48 18.07 64.05 3.09 0.83 8.96 2.34 10.32 5.24 4.31 9.22-18.13 9.48-22.73 10.28-8.15 1.41-17.1 4.24-24.78 2.5-3.74-4.3 4.71-11.41 7.66-14.18-3.17-10.55-6.36-26.53-8.68-37.52q-2.04-10.59-3.81-21.24-14.91 5.23-30.21 9.17c-3.77 13.97-7.53 27.16-9.81 41.46 2.79 2.63 11.04 9.45 9.56 13.44-5.4 2.9-16.16 2.51-22.39 2.47-4.85-0.03-15.65 0.86-16.66-5.08 1.65-4.51 5.32-5.94 9.42-8.28 3.29-6.49 7.3-25.18 9.27-33.2l20.01-80.61c3.16-12.85 5.92-27.85 10.62-40.1 2.25-5.86 8.33-8.73 14-10.83zm-19.46 100.89l6.74-2.09c4.75-1.21 9.92-2.65 14.67-3.73-1.36-6.33-7.4-36.92-9.6-41.06-3.67 14.55-8.77 32.49-11.81 46.88z"/>
		<path class="s0" d="m835.83 251.94c2.85 0.09 4.81 0.17 6.49 2.72 4.2 6.37 5.96 28.36-0.8 33.11-8.95 2.67-8.79-10.11-14.14-10.93-10.58-1.61-41.74 12.52-50.44 16.85-3.1 16.57-1.44 42.45-0.66 59.95l16.79-6.86c1.03-4.03 2.79-11.27 7.06-12.7 7.35 2.21 8.85 30.66 2.73 36.84-4.57 1.32-6.42-2.98-8.38-6.48-4.84 1.31-11.15 3.6-16.02 5.21 0.75 16.7 2.91 32.72 4.81 49.3 1.44 12.52 2.37 24.55 4.28 37.04 1.76 1.56 3.93 2.92 5.89 4.24 3.43 2.61 5.45 4.23 3.69 8.6-2.74 1.75-11.06 4.42-14.32 5.07-7.63 1.51-22.36 8.08-29.13 4.86-3.99-5.11 4.31-11.62 7.92-14.96-0.1-27.67-5.62-55.02-7.81-82.4-2.09-25.99-3.98-51.9-6.17-77.9-4.25-1.19-10.88-3.12-13.18-7.07-0.04-0.68-0.29-1.75 0.09-2.32 6.53-9.72 88.01-39.29 101.3-42.17z"/>
		<path class="s0" d="m495.58 362.88c5.37 0.76 7.04 5.33 6.39 10.21-1.47 6.31-1.47 17.46-3.95 23.14-7.59 17.42-14.43-6.35-17.42-10.12-4.61-5.81-15.03-3.74-19.45 0.78-11.99 12.27-16.51 31.73-17.17 48.45-0.87 18.85 0.93 40.46 13.32 55.7 4.98 6.09 13.73 6.81 19.17 0.94 9.67-10.45 8.26-27.62 8.11-40.78-5.28 2.03-17.07 7.42-20.65 1.93-9.46-14.86 24.54-18.71 33.19-21.37 6.22-1.92 20.76-2.62 19.57 7.43-1.11 2.32-2.1 2.69-4.27 3.97l-5.95 1.5c0.5 11.03 4 58.95-3.47 65.4-6.27 0.77-7.85-10.37-8.51-14.75-6.1 9.16-13 18.14-24.13 20.42-27.61 5.68-46.81-18.59-52.12-42.59-5.87-25.95-0.83-55.74 12.84-78.56 12.96-21.62 34.33-36.48 58.73-21.14 1.44-4.62 2.39-7.11 5.77-10.56z"/>
		<path class="s0" d="m701.48 302c1.45 0.04 4.45 0.35 5.1 1.9 14.4 34.44 20.22 72.27 30.39 108.11 2.32 8.17 4.02 17.71 8.26 24.99 3.22 1.68 9.27 4.08 8.43 8.38-5.56 5.61-30.66 17.28-36.99 10.88-1.13-4.1 0.85-6.64 2.87-10.27q-4.47-21.12-9.85-42.03c-7.09 1.28-19.04 5.64-26.12 8.09-1.22 9.31-3.04 18.8-4.7 28.06 2.93 2.44 5.83 4.1 5.98 8.16-3.99 7.1-27.24 1.7-30.97-3.87-0.74-5.21 4.28-6.13 8.36-7.65 2.5-7.03 4.53-19.99 6.02-27.76l11.49-59.8c2.13-11.02 4.21-23.3 7.37-34.01 2.19-7.4 7.88-10.16 14.36-13.18zm-14.6 91.98l8.32-2.83 10.64-2.45c-1.54-6.26-7.36-32.04-9.55-36.13-3.52 12.08-6.81 28.81-9.41 41.41z"/>
		<path class="s0" d="m886.9 287.75q0.97-0.16 1.94-0.28c4.52-0.51 7.14 1.38 7.48 5.98 0.59 7.8 0.02 23.38-5.1 29.5-5.93 2.09-8.52-13.14-11.29-13.15-5.57-0.02-28.39 7.48-33.09 9.65-3.08 10.64-2.37 37.93-2.21 49.62 5.8-0.62 11.52-1.91 17.02-3.86 1.9-3.88 5.4-13.03 9.69-13.46 5.67 3.67 8.17 40.88-1.94 39.76-4.01-2.43-5.14-5.49-7.08-9.64l-16.18 4.4c0.69 21.26 2.58 42.99 3.45 64.45-0.34 10.89 15.71 7.55 11.2 17.72-5.6 4.8-25.96 6.98-31.99 7.63-17.43 1.88-17.34-4.99-6.18-14.44 1.92-13.09 0.75-38.72 0.47-52.5q-0.97-42.16-1.38-84.33c-4.25-1.8-8.7-3.76-10.79-7.96 0.08-3.74 3.85-6.51 7.18-7.64 22.62-7.62 45.49-16.24 68.8-21.45z"/>
		<path class="s0" d="m555.72 348.17c1.62-0.08 3.36 0.03 5 0.1 0.9 0.56 1.73 0.83 2.16 1.84 1.63 3.77-3.38 11.94-4.84 15.69-5.5 14.14-3.7 95.02 0.42 111.55 1.81 7.25 7.1 12.75 10.05 19.54-9.88 4.47-23.62 6.73-34.41 8.98-4.23 0.08-6.86 0.13-7.82-4.45 1.39-5.33 3.8-6.88 7.88-10.47-0.73-22.45-2.81-45.28-3.09-67.77-0.22-17.41 1.23-35.03 1.68-52.52-4.75-1.97-9.77-2.93-9.61-8.89 3.39-6.74 23.07-9.58 32.58-13.6z"/>
	</g>
</svg>